<mxfile host="app.diagrams.net" modified="2024-05-28T06:00:38.790Z" agent="Mozilla/5.0 (Macintosh; Intel Mac OS X 10_15_7) AppleWebKit/537.36 (KHTML, like Gecko) Chrome/125.0.0.0 Safari/537.36" etag="SIMUQaDW36f-izCbKyNT" version="24.4.9" type="github">
  <diagram name="Page-1" id="Ln7dWAybLOrNNRmTtekH">
    <mxGraphModel dx="638" dy="1563" grid="1" gridSize="10" guides="1" tooltips="1" connect="1" arrows="1" fold="1" page="1" pageScale="1" pageWidth="827" pageHeight="1169" math="0" shadow="0">
      <root>
        <mxCell id="0" />
        <mxCell id="1" parent="0" />
        <mxCell id="VhYzwTwejtBj_856slbG-14" value="Member" style="swimlane;childLayout=stackLayout;horizontal=1;startSize=50;horizontalStack=0;rounded=1;fontSize=14;fontStyle=0;strokeWidth=2;resizeParent=0;resizeLast=1;shadow=0;dashed=0;align=center;arcSize=4;whiteSpace=wrap;html=1;" vertex="1" parent="1">
          <mxGeometry x="70" y="-690" width="200" height="150" as="geometry" />
        </mxCell>
        <mxCell id="VhYzwTwejtBj_856slbG-15" value="Member ID (PK)&lt;div&gt;name&lt;/div&gt;&lt;div&gt;address&lt;/div&gt;&lt;div&gt;mobile&amp;nbsp;&lt;/div&gt;&lt;div&gt;email&lt;/div&gt;" style="align=left;strokeColor=none;fillColor=none;spacingLeft=4;fontSize=12;verticalAlign=top;resizable=0;rotatable=0;part=1;html=1;" vertex="1" parent="VhYzwTwejtBj_856slbG-14">
          <mxGeometry y="50" width="200" height="100" as="geometry" />
        </mxCell>
        <mxCell id="VhYzwTwejtBj_856slbG-21" value="Loans" style="swimlane;childLayout=stackLayout;horizontal=1;startSize=50;horizontalStack=0;rounded=1;fontSize=14;fontStyle=0;strokeWidth=2;resizeParent=0;resizeLast=1;shadow=0;dashed=0;align=center;arcSize=4;whiteSpace=wrap;html=1;" vertex="1" parent="1">
          <mxGeometry x="330" y="-550" width="190" height="150" as="geometry" />
        </mxCell>
        <mxCell id="VhYzwTwejtBj_856slbG-22" value="Loan date (CK)&lt;div&gt;return date&lt;/div&gt;&lt;div&gt;member id (CK) (FK)&lt;/div&gt;&lt;div&gt;isbn&amp;nbsp;&lt;span style=&quot;background-color: initial;&quot;&gt;(CK) (FK)&lt;/span&gt;&lt;/div&gt;&lt;div&gt;staff ID (FK)&lt;/div&gt;" style="align=left;strokeColor=none;fillColor=none;spacingLeft=4;fontSize=12;verticalAlign=top;resizable=0;rotatable=0;part=1;html=1;" vertex="1" parent="VhYzwTwejtBj_856slbG-21">
          <mxGeometry y="50" width="190" height="100" as="geometry" />
        </mxCell>
        <mxCell id="VhYzwTwejtBj_856slbG-33" style="edgeStyle=orthogonalEdgeStyle;rounded=0;orthogonalLoop=1;jettySize=auto;html=1;entryX=1;entryY=0;entryDx=0;entryDy=0;" edge="1" parent="1" source="VhYzwTwejtBj_856slbG-25" target="VhYzwTwejtBj_856slbG-22">
          <mxGeometry relative="1" as="geometry" />
        </mxCell>
        <mxCell id="VhYzwTwejtBj_856slbG-25" value="Book" style="swimlane;childLayout=stackLayout;horizontal=1;startSize=50;horizontalStack=0;rounded=1;fontSize=14;fontStyle=0;strokeWidth=2;resizeParent=0;resizeLast=1;shadow=0;dashed=0;align=center;arcSize=4;whiteSpace=wrap;html=1;" vertex="1" parent="1">
          <mxGeometry x="620" y="-710" width="190" height="150" as="geometry" />
        </mxCell>
        <mxCell id="VhYzwTwejtBj_856slbG-26" value="ISBN (PK)&lt;div&gt;Title&lt;/div&gt;&lt;div&gt;Genre&lt;/div&gt;&lt;div&gt;Author&amp;nbsp;&lt;/div&gt;" style="align=left;strokeColor=none;fillColor=none;spacingLeft=4;fontSize=12;verticalAlign=top;resizable=0;rotatable=0;part=1;html=1;" vertex="1" parent="VhYzwTwejtBj_856slbG-25">
          <mxGeometry y="50" width="190" height="100" as="geometry" />
        </mxCell>
        <mxCell id="VhYzwTwejtBj_856slbG-28" value="Librarians" style="swimlane;childLayout=stackLayout;horizontal=1;startSize=50;horizontalStack=0;rounded=1;fontSize=14;fontStyle=0;strokeWidth=2;resizeParent=0;resizeLast=1;shadow=0;dashed=0;align=center;arcSize=4;whiteSpace=wrap;html=1;" vertex="1" parent="1">
          <mxGeometry x="570" y="-420" width="190" height="150" as="geometry" />
        </mxCell>
        <mxCell id="VhYzwTwejtBj_856slbG-29" value="Staff id (PK)&lt;div&gt;name&lt;/div&gt;&lt;div&gt;mobile&lt;/div&gt;&lt;div&gt;address&lt;/div&gt;&lt;div&gt;&lt;br&gt;&lt;/div&gt;" style="align=left;strokeColor=none;fillColor=none;spacingLeft=4;fontSize=12;verticalAlign=top;resizable=0;rotatable=0;part=1;html=1;" vertex="1" parent="VhYzwTwejtBj_856slbG-28">
          <mxGeometry y="50" width="190" height="100" as="geometry" />
        </mxCell>
        <mxCell id="VhYzwTwejtBj_856slbG-30" value="Member" style="swimlane;childLayout=stackLayout;horizontal=1;startSize=50;horizontalStack=0;rounded=1;fontSize=14;fontStyle=0;strokeWidth=2;resizeParent=0;resizeLast=1;shadow=0;dashed=0;align=center;arcSize=4;whiteSpace=wrap;html=1;" vertex="1" parent="1">
          <mxGeometry x="60" y="-370" width="190" height="150" as="geometry" />
        </mxCell>
        <mxCell id="VhYzwTwejtBj_856slbG-31" value="member_id integer&lt;div&gt;member_name string&lt;/div&gt;&lt;div&gt;member_address string&lt;/div&gt;&lt;div&gt;member_mobile string&amp;nbsp;&lt;/div&gt;&lt;div&gt;member email string&amp;nbsp;&lt;/div&gt;" style="align=left;strokeColor=none;fillColor=none;spacingLeft=4;fontSize=12;verticalAlign=top;resizable=0;rotatable=0;part=1;html=1;" vertex="1" parent="VhYzwTwejtBj_856slbG-30">
          <mxGeometry y="50" width="190" height="100" as="geometry" />
        </mxCell>
        <mxCell id="VhYzwTwejtBj_856slbG-32" style="edgeStyle=orthogonalEdgeStyle;rounded=0;orthogonalLoop=1;jettySize=auto;html=1;entryX=0;entryY=0.25;entryDx=0;entryDy=0;" edge="1" parent="1" source="VhYzwTwejtBj_856slbG-15" target="VhYzwTwejtBj_856slbG-22">
          <mxGeometry relative="1" as="geometry" />
        </mxCell>
        <mxCell id="VhYzwTwejtBj_856slbG-34" style="edgeStyle=orthogonalEdgeStyle;rounded=0;orthogonalLoop=1;jettySize=auto;html=1;entryX=0;entryY=0.25;entryDx=0;entryDy=0;" edge="1" parent="1" source="VhYzwTwejtBj_856slbG-22" target="VhYzwTwejtBj_856slbG-29">
          <mxGeometry relative="1" as="geometry" />
        </mxCell>
        <mxCell id="VhYzwTwejtBj_856slbG-36" value="Loans" style="swimlane;childLayout=stackLayout;horizontal=1;startSize=50;horizontalStack=0;rounded=1;fontSize=14;fontStyle=0;strokeWidth=2;resizeParent=0;resizeLast=1;shadow=0;dashed=0;align=center;arcSize=4;whiteSpace=wrap;html=1;" vertex="1" parent="1">
          <mxGeometry x="290" y="-330" width="190" height="150" as="geometry" />
        </mxCell>
        <mxCell id="VhYzwTwejtBj_856slbG-37" value="loan_date date/time&lt;div&gt;return date date/time&lt;/div&gt;&lt;div&gt;member_id integer&lt;/div&gt;&lt;div&gt;isbn string&lt;/div&gt;&lt;div&gt;staff_id integer&lt;/div&gt;" style="align=left;strokeColor=none;fillColor=none;spacingLeft=4;fontSize=12;verticalAlign=top;resizable=0;rotatable=0;part=1;html=1;" vertex="1" parent="VhYzwTwejtBj_856slbG-36">
          <mxGeometry y="50" width="190" height="100" as="geometry" />
        </mxCell>
        <mxCell id="VhYzwTwejtBj_856slbG-39" value="Book" style="swimlane;childLayout=stackLayout;horizontal=1;startSize=50;horizontalStack=0;rounded=1;fontSize=14;fontStyle=0;strokeWidth=2;resizeParent=0;resizeLast=1;shadow=0;dashed=0;align=center;arcSize=4;whiteSpace=wrap;html=1;" vertex="1" parent="1">
          <mxGeometry x="550" y="-190" width="190" height="150" as="geometry" />
        </mxCell>
        <mxCell id="VhYzwTwejtBj_856slbG-40" value="+isbn string&lt;div&gt;+book_title string&lt;/div&gt;&lt;div&gt;+genre string&lt;/div&gt;&lt;div&gt;+author string&amp;nbsp;&lt;/div&gt;" style="align=left;strokeColor=none;fillColor=none;spacingLeft=4;fontSize=12;verticalAlign=top;resizable=0;rotatable=0;part=1;html=1;" vertex="1" parent="VhYzwTwejtBj_856slbG-39">
          <mxGeometry y="50" width="190" height="100" as="geometry" />
        </mxCell>
        <mxCell id="VhYzwTwejtBj_856slbG-41" value="" style="swimlane;childLayout=stackLayout;horizontal=1;startSize=50;horizontalStack=0;rounded=1;fontSize=14;fontStyle=0;strokeWidth=2;resizeParent=0;resizeLast=1;shadow=0;dashed=0;align=center;arcSize=4;whiteSpace=wrap;html=1;" vertex="1" parent="VhYzwTwejtBj_856slbG-39">
          <mxGeometry y="150" width="190" as="geometry" />
        </mxCell>
        <mxCell id="VhYzwTwejtBj_856slbG-48" value="" style="edgeStyle=entityRelationEdgeStyle;fontSize=12;html=1;endArrow=ERzeroToMany;endFill=1;startArrow=ERzeroToMany;rounded=0;" edge="1" parent="1">
          <mxGeometry width="100" height="100" relative="1" as="geometry">
            <mxPoint x="480" y="-220" as="sourcePoint" />
            <mxPoint x="570" y="-320" as="targetPoint" />
          </mxGeometry>
        </mxCell>
        <mxCell id="VhYzwTwejtBj_856slbG-51" value="processes loans" style="edgeLabel;html=1;align=center;verticalAlign=middle;resizable=0;points=[];" vertex="1" connectable="0" parent="VhYzwTwejtBj_856slbG-48">
          <mxGeometry x="-0.0613" y="-1" relative="1" as="geometry">
            <mxPoint as="offset" />
          </mxGeometry>
        </mxCell>
        <mxCell id="VhYzwTwejtBj_856slbG-49" value="" style="edgeStyle=entityRelationEdgeStyle;fontSize=12;html=1;endArrow=ERzeroToMany;endFill=1;startArrow=ERzeroToMany;rounded=0;exitX=0.5;exitY=1;exitDx=0;exitDy=0;" edge="1" parent="1" source="VhYzwTwejtBj_856slbG-31">
          <mxGeometry width="100" height="100" relative="1" as="geometry">
            <mxPoint x="200" y="-100" as="sourcePoint" />
            <mxPoint x="290" y="-200" as="targetPoint" />
          </mxGeometry>
        </mxCell>
        <mxCell id="VhYzwTwejtBj_856slbG-50" value="Borrows" style="edgeLabel;html=1;align=center;verticalAlign=middle;resizable=0;points=[];" vertex="1" connectable="0" parent="VhYzwTwejtBj_856slbG-49">
          <mxGeometry x="-0.058" y="-2" relative="1" as="geometry">
            <mxPoint as="offset" />
          </mxGeometry>
        </mxCell>
        <mxCell id="VhYzwTwejtBj_856slbG-54" value="" style="edgeStyle=entityRelationEdgeStyle;fontSize=12;html=1;endArrow=ERoneToMany;startArrow=ERoneToMany;rounded=0;exitX=0.993;exitY=0.591;exitDx=0;exitDy=0;exitPerimeter=0;" edge="1" parent="1" source="VhYzwTwejtBj_856slbG-37">
          <mxGeometry width="100" height="100" relative="1" as="geometry">
            <mxPoint x="450" as="sourcePoint" />
            <mxPoint x="550" y="-100" as="targetPoint" />
          </mxGeometry>
        </mxCell>
        <mxCell id="VhYzwTwejtBj_856slbG-56" value="Loaned" style="edgeLabel;html=1;align=center;verticalAlign=middle;resizable=0;points=[];" vertex="1" connectable="0" parent="VhYzwTwejtBj_856slbG-54">
          <mxGeometry x="0.0054" y="-1" relative="1" as="geometry">
            <mxPoint as="offset" />
          </mxGeometry>
        </mxCell>
      </root>
    </mxGraphModel>
  </diagram>
</mxfile>
